<svg xmlns="http://www.w3.org/2000/svg" width="50" height="50" viewBox="0 0 50 50">
  <g id="zoomD" transform="translate(-241 -381)">
    <rect id="Box" width="50" height="50" transform="translate(241 381)" fill="none"/>
    <path id="Pfad_402" data-name="Pfad 402" d="M274.806,411.168h-1.924l-.669-.663a15.713,15.713,0,1,0-1.71,1.716l.669.663v1.92l12.124,12.1,3.61-3.614-12.093-12.124Zm-14.547,0a10.91,10.91,0,0,1-10.91-10.91h0a10.91,10.91,0,1,1,10.91,10.91Z" transform="translate(0 0)" fill="#9b9b9b" fill-rule="evenodd"/>
    <path id="Pfad_402-2" data-name="Pfad 402" d="M274.806,411.168h-1.924l-.669-.663a15.713,15.713,0,1,0-1.71,1.716l.669.663v1.92l12.124,12.1,3.61-3.614-12.093-12.124Zm-14.547,0a10.91,10.91,0,0,1-10.91-10.91h0a10.91,10.91,0,1,1,10.91,10.91Z" transform="translate(0 0)" fill="#9b9b9b" fill-rule="evenodd"/>
    <text id="A" transform="translate(254 406)" fill="#64666b" font-size="18" font-family="OpenSans-Semibold, Open Sans" font-weight="600"><tspan x="0" y="0">A</tspan></text>
  </g>
</svg>
