<?xml version="1.0" encoding="utf-8"?>
<!-- Generator: Adobe Illustrator 22.0.1, SVG Export Plug-In . SVG Version: 6.00 Build 0)  -->
<svg version="1.1" id="Ebene_1" xmlns="http://www.w3.org/2000/svg" xmlns:xlink="http://www.w3.org/1999/xlink" x="0px" y="0px"
	 viewBox="0 0 35 35" style="enable-background:new 0 0 35 35;" xml:space="preserve">
<style type="text/css">
	.st0{clip-path:url(#SVGID_2_);fill:#3D3D3D;}
	.st1{clip-path:url(#SVGID_2_);fill:none;stroke:#3D3D3D;stroke-width:2;stroke-miterlimit:10;}
</style>
<g>
	<defs>
		<rect id="SVGID_1_" x="1" y="1" width="33" height="33"/>
	</defs>
	<clipPath id="SVGID_2_">
		<use xlink:href="#SVGID_1_"  style="overflow:visible;"/>
	</clipPath>
	<path class="st0" d="M19.4,31.5c0,0.3-0.2,0.5-0.5,0.5H3.5C3.2,32,3,31.8,3,31.5V16c0-0.3,0.2-0.5,0.5-0.5h16V31.5z M3.5,14.6
		C2.7,14.6,2,15.2,2,16v15.5C2,32.3,2.7,33,3.5,33H19c0.8,0,1.5-0.7,1.5-1.5V15.3l6.8-6.8v6.6c0,0.3,0.2,0.5,0.5,0.5
		c0.3,0,0.5-0.2,0.5-0.5V7.3c0-0.3-0.2-0.5-0.5-0.5h-7.8c-0.3,0-0.5,0.2-0.5,0.5c0,0.3,0.2,0.5,0.5,0.5h6.6l-6.8,6.8H3.5z M33,31.5
		V3.5C33,2.7,32.3,2,31.5,2H3.5C2.7,2,2,2.7,2,3.5v8.7c0,0.3,0.2,0.5,0.5,0.5c0.3,0,0.5-0.2,0.5-0.5V3.5C3,3.2,3.2,3,3.5,3h28.1
		C31.8,3,32,3.2,32,3.5v28.1c0,0.3-0.2,0.5-0.5,0.5h-8.7c-0.3,0-0.5,0.2-0.5,0.5c0,0.3,0.2,0.5,0.5,0.5h8.7C32.3,33,33,32.3,33,31.5
		"/>
	<path class="st1" d="M19.4,31.5c0,0.3-0.2,0.5-0.5,0.5H3.5C3.2,32,3,31.8,3,31.5V16c0-0.3,0.2-0.5,0.5-0.5h16V31.5z M3.5,14.6
		C2.7,14.6,2,15.2,2,16v15.5C2,32.3,2.7,33,3.5,33H19c0.8,0,1.5-0.7,1.5-1.5V15.3l6.8-6.8v6.6c0,0.3,0.2,0.5,0.5,0.5
		c0.3,0,0.5-0.2,0.5-0.5V7.3c0-0.3-0.2-0.5-0.5-0.5h-7.8c-0.3,0-0.5,0.2-0.5,0.5c0,0.3,0.2,0.5,0.5,0.5h6.6l-6.8,6.8H3.5z M33,31.5
		V3.5C33,2.7,32.3,2,31.5,2H3.5C2.7,2,2,2.7,2,3.5v8.7c0,0.3,0.2,0.5,0.5,0.5c0.3,0,0.5-0.2,0.5-0.5V3.5C3,3.2,3.2,3,3.5,3h28.1
		C31.8,3,32,3.2,32,3.5v28.1c0,0.3-0.2,0.5-0.5,0.5h-8.7c-0.3,0-0.5,0.2-0.5,0.5c0,0.3,0.2,0.5,0.5,0.5h8.7C32.3,33,33,32.3,33,31.5
		z"/>
</g>
</svg>
