<svg xmlns="http://www.w3.org/2000/svg" width="50" height="50" viewBox="0 0 50 50">
  <g id="Group_1828" data-name="Group 1828" transform="translate(-408 -146)">
    <rect id="Rectangle_336" data-name="Rectangle 336" width="50" height="50" rx="4" transform="translate(408 146)" fill="#ffffff"/>
    <g id="Group_1827" data-name="Group 1827" transform="translate(-114.573 -540.572)">
      <path id="Path_1321" data-name="Path 1321" d="M2.921,0H17.486a2.922,2.922,0,1,1,0,5.844H2.922A2.922,2.922,0,0,1,0,2.922H0A2.921,2.921,0,0,1,2.921,0Z" transform="translate(537.865 689.572)" fill="#9b9b9b"/>
      <path id="Path_1310" data-name="Path 1310" d="M226.316,221l2.981,17.033L232.28,221" transform="translate(318.771 496.543)" fill="#3c3c3c"/>
      <path id="Path_1311" data-name="Path 1311" d="M236.216,209.544H215.222a17.007,17.007,0,0,1,.982-5.458c1.279-3.616,4.423-5.892,4.423-17.8H230.81c0,11.916,3.143,14.186,4.424,17.8A17.061,17.061,0,0,1,236.216,209.544Z" transform="translate(322.351 508.455)" fill="#9b9b9b"/>
    </g>
  </g>
</svg>
