<svg xmlns="http://www.w3.org/2000/svg" width="104.7" height="104.411" viewBox="0 0 104.7 104.411">
  <g id="Group_1" data-name="Group 1" transform="translate(0 0.011)">
    <path id="Union_1" data-name="Union 1" d="M-369.7-218.6a1.323,1.323,0,0,1-1.3-1.3v-2h-.7l-1.9-.1c-.3.2-.7.4-1,.6v1.8c0,.1-.1.1-.1.2l-.1.1c-.1,0-.1.1-.2.1a.1.1,0,0,1-.1.1.755.755,0,0,1-.4.1h-.1l-1.7-.2-1.7-.2h-.1c-.1-.1-.1-.1-.2-.1a.349.349,0,0,1-.2-.1h-.1a11.337,11.337,0,0,1-3.2-.1h-.1l-3.2-.8c-.2-.1-.3-.1-.4-.2a.777.777,0,0,1-.4-.4c0-.2-.1-.3-.1-.5,0-.1.1-.3.1-.4v-.1a6.153,6.153,0,0,1-1.3.1,9.744,9.744,0,0,1-3.4-.6l-1.5-.7-1.5-.7-.1-.1a.349.349,0,0,1-.2-.1l-.1-.1-.1-.1a9.78,9.78,0,0,1-3-1.1h-.1l-1.4-.9-1.4-.9-.3-.3a.763.763,0,0,1-.2-.5c-.1-.1,0-.3,0-.5,0-.1.1-.1.1-.2a9.49,9.49,0,0,1-4.3-2l-.1-.1L-407-232l-1.3-1.3a1.086,1.086,0,0,1-.4-.9,9.635,9.635,0,0,1-2.2-1.8l-1.1-1.2-1.1-1.3a.757.757,0,0,1-.2-.4v-.6c0-.2.1-.3.2-.5.1,0,.1-.1.1-.2a10.423,10.423,0,0,1-3.4-3.2.1.1,0,0,1-.1-.1l-.8-1.4-.8-1.5a1.7,1.7,0,0,1-.1-.7.367.367,0,0,0,.1-.3,9.748,9.748,0,0,1-1.5-2.4.1.1,0,0,1-.1-.1l-.6-1.4-.6-1.6a1.336,1.336,0,0,1,.6-1.5,10.478,10.478,0,0,1-2.2-4c-.1-.1-.1-.1-.1-.2l-.4-1.6-.3-1.7a1.164,1.164,0,0,1,.2-1,8.965,8.965,0,0,1-.7-2.7v-.1l-.1-1.6-.1-1.7a.4.4,0,0,1,.2-.4,2.173,2.173,0,0,1,.3-.5,1.4,1.4,0,0,1,.4-.3.6.6,0,0,1,.4-.1h.1a8.687,8.687,0,0,1-.9-4.5l.2-1.7.2-1.7v-.1a.309.309,0,0,0,.1-.2c0-.1.1-.1.1-.2a8.557,8.557,0,0,1,.1-3.2v-.1l.5-1.7.4-1.6a1.147,1.147,0,0,1,1.5-.9c.1.1.1.1.2.1a8.142,8.142,0,0,1,.5-4.6l.7-1.5.8-1.7.1-.1a.348.348,0,0,1,.1-.2l.1-.1h.1a9.756,9.756,0,0,1,1.1-3l.1-.1,1.7-2.7.3-.3c.2-.1.3-.2.5-.2.1-.1.3,0,.5,0a.353.353,0,0,0,.2.1,9.446,9.446,0,0,1,1.9-4.2l.1-.1,1.1-1.2,1.3-1.3a1.084,1.084,0,0,1,.9-.4,9.588,9.588,0,0,1,1.8-2.2l1.2-1.1,1.3-1.1a1.353,1.353,0,0,1,1.7.1,9.191,9.191,0,0,1,3.1-3.4.1.1,0,0,1,.1-.1l1.4-.8,1.5-.8a1.178,1.178,0,0,1,1-.1,9.725,9.725,0,0,1,2.4-1.5h.1l1.5-.6,1.7-.6a1.217,1.217,0,0,1,1.6.7v.2a8.943,8.943,0,0,1,4-2.3l1.6-.4,1.7-.3h.3c.1,0,.1.1.2.1h.1a9.114,9.114,0,0,1,3.1-.9h.1l1.6-.1,1.7-.1a1.216,1.216,0,0,1,1.4,1.2v.2a9.8,9.8,0,0,1,4.5-.9l1.7.2,1.7.2h.1c.1.1.1.1.2.1l.1.1a9.023,9.023,0,0,1,3.3.1h.1l1.5.4,1.6.4a1.435,1.435,0,0,1,1,1.6c-.1.1-.1.1-.1.2a9,9,0,0,1,4.6.5l1.5.7,1.7.8.1.1.1.1a.1.1,0,0,1,.1.1,9.784,9.784,0,0,1,3,1.1h.1l1.4.9,1.4.9a1.888,1.888,0,0,1,.4.6c.1.2.2.3.2.5.1.1,0,.3,0,.5a.349.349,0,0,0-.1.2,9.477,9.477,0,0,1,4.3,2l.1.1,1.2,1,1.2,1.2a1.086,1.086,0,0,1,.4.9,9.611,9.611,0,0,1,2.2,1.8l1.1,1.2,1.1,1.3a.757.757,0,0,1,.2.4v.5c0,.2-.1.3-.2.5l-.2.2a9.186,9.186,0,0,1,3.4,3.1.1.1,0,0,1,.1.1l.8,1.4.8,1.5a1.184,1.184,0,0,1,.1,1,9.746,9.746,0,0,1,1.5,2.4v.1l.6,1.5.4,1.9a.6.6,0,0,1,.1.4.9.9,0,0,1-.1.5c0,.1-.2.3-.3.4a.76.76,0,0,1-.4.2h-.1a8.946,8.946,0,0,1,2.3,4l.4,1.6.3,1.7v.5a8.5,8.5,0,0,1,.9,3.1l.1,1.6.1,1.7v.3a2.183,2.183,0,0,1-.3.5,1.389,1.389,0,0,1-.4.3.6.6,0,0,1-.4.1h-.1a10.136,10.136,0,0,1,.9,3.9v.7l-.2,1.7-.2,1.7v.3c0,.1-.1.1-.1.2v.1a8.543,8.543,0,0,1-.1,3.2v.1l-.4,1.6-.4,1.6a1.145,1.145,0,0,1-1.5.9c-.1-.1-.1-.1-.2-.1a8.133,8.133,0,0,1-.5,4.6l-.7,1.5-.7,1.5a.1.1,0,0,0-.1.1.1.1,0,0,0-.1.1l-.1.1-.1.1h-.1a9.784,9.784,0,0,1-1.1,3v.1l-.8,1.4-.9,1.4-.1.1a1.281,1.281,0,0,1-1.6.4,9.486,9.486,0,0,1-2,4.3l-.1.1-1.1,1.2-1.2,1.2a1.086,1.086,0,0,1-.9.4,7.881,7.881,0,0,1-1.8,2.2l-.1.1-2.6,2.1a.757.757,0,0,1-.4.2h-.5c-.2,0-.3-.1-.5-.2-.1,0-.1,0-.2-.1a8.683,8.683,0,0,1-3.2,3.4h-.1l-1.4.8-1.5.8a1.184,1.184,0,0,1-1,.1,9.747,9.747,0,0,1-2.4,1.5h-.1l-1.5.6-1.6.6a1.217,1.217,0,0,1-1.6-.7v-.1l-.6-1.9-2.5.8c-.2.3-.5.5-.7.8l.4,1.3v.5c-.1.1-.1.1-.1.2l-.1.1-.1.1c-.1,0-.1.1-.2.1a.1.1,0,0,1-.1.1h-.1l-1.6.4-1.7.3h-.1c-.1,0-.2-.1-.3-.1a8.607,8.607,0,0,1-3,.9h-.1l-1.6.1-1.6.1Zm1-3.5v1.2h.4c2.2-.9,4.3-3.3,6.2-7v-.8C-364.1-225-366.3-222.7-368.7-222.1Zm-15.6-.3.5.1c2.3-.2,5.1-1.8,7.9-4.7l.2-.8c-2.8,2.8-5.5,4.2-7.9,4.2h-.3Zm6.6-.5,3.9-1.8a10.522,10.522,0,0,1,1.1-.8h-.6l-1.3-.1A23.717,23.717,0,0,1-377.7-222.9Zm18.4-4.3-1.3.3a21.73,21.73,0,0,1-2,3.4l3.1-2.8a10.566,10.566,0,0,0,.7-1.1Zm-30.7,2.7-.1.4a6.174,6.174,0,0,0,3.3.1l-2.1-.7C-389.3-224.6-389.6-224.6-390-224.5Zm22.3-8.7a1.229,1.229,0,0,1,.8,1.6l-1.7,5.2a.908.908,0,0,1-.3.7c-.5.5-1.1,1-1.6,1.5h.6a1.448,1.448,0,0,1,.7.2c2.6-.6,5.2-4,7.2-9.5a.1.1,0,0,0,.1-.1.349.349,0,0,1,.1-.2.1.1,0,0,1,.1-.1l.1-.1h.1l1.6-.5,1.6-.6.8-.3a1.229,1.229,0,0,1,1.1-.7,1.323,1.323,0,0,1,1.3,1.3v5.6a.952.952,0,0,1-.2.7c-.3.6-.7,1.2-1,1.8l.6-.2a.6.6,0,0,1,.4-.1h.3c2.3-1.4,3.7-5.4,3.9-11.3v-.3c.1-.1.1-.1.1-.2l.1-.1.1-.1h.1l1.4-1,1.4-1,.7-.7a.975.975,0,0,1,.8-1,1.23,1.23,0,0,1,1.6.8l1.7,5.2a1.483,1.483,0,0,1,.1.7,14.245,14.245,0,0,1-.4,2.2l.5-.3a1.856,1.856,0,0,1,.7-.2c1.7-1.9,1.8-6.2.2-11.9v-.5c.1-.1.1-.1.1-.2v-.1l1.2-1.4,1-1.4.5-.8a1.218,1.218,0,0,1,.5-1.2,1.179,1.179,0,0,1,1.7.3l3.3,4.5c.1.2.2.3.2.5v.1c.1.8.2,1.5.3,2.2l.3-.4a2.093,2.093,0,0,1,.6-.4c1-2.4-.2-6.5-3.5-11.4v-.1a.1.1,0,0,1-.1-.1c-.1-.1-.1-.1-.1-.2v-.5l.5-1.7.5-1.6.3-.8a1.232,1.232,0,0,1,.1-1.3,1.165,1.165,0,0,1,1.7-.3l4.5,3.2a1.208,1.208,0,0,1,.5.5c.3.7.6,1.3.9,2l.2-.5a.917.917,0,0,1,.4-.6c.2-2.7-2.3-6.2-6.7-9.5l-.1-.1-.1-.1a.1.1,0,0,1-.1-.1v-4l-.1-.9a1.519,1.519,0,0,1-.3-1.3,1.23,1.23,0,0,1,1.6-.8l5.4,1.7a.919.919,0,0,1,.6.4c.5.6,1,1.1,1.4,1.6v-.6a1.445,1.445,0,0,1,.2-.7c-.6-2.6-4-5.2-9.5-7.2h-.1a.1.1,0,0,0-.1-.1c-.1,0-.1-.1-.2-.1l-.1-.1c0-.1-.1-.1-.1-.2v-.1l-.5-1.7-.6-1.6-.3-.8a1.23,1.23,0,0,1-.7-1.1,1.323,1.323,0,0,1,1.3-1.3h5.9a.367.367,0,0,1,.3.1c.7.4,1.3.7,1.9,1.1l-.2-.5v-.3c-.1-.2,0-.3,0-.4-1.4-2.3-5.4-3.7-11.3-3.9h-.1c-.1,0-.2-.1-.3-.1h-.1c-.1,0-.1-.1-.2-.1l-.1-.1-.1-.1-1-1.4-1-1.4-.6-.7a.975.975,0,0,1-1-.8,1.23,1.23,0,0,1,.8-1.6l5.2-1.7a1.485,1.485,0,0,1,.7-.1c.9.2,1.8.4,2.6.6l-.1-.1a1.155,1.155,0,0,1-.7-.5,1.861,1.861,0,0,1-.2-.7c-2-1.8-6.2-1.9-11.9-.3h-.4c-.1-.1-.1-.1-.2-.1h-.1a.1.1,0,0,0-.1-.1h-.1l-1.4-1.1-1.4-1-.8-.5a1.346,1.346,0,0,1-1.2-.5,1.179,1.179,0,0,1,.3-1.7l4.5-3.2a.606.606,0,0,1,.6-.3l2.7-.3-.1-.1a1.2,1.2,0,0,1-.8-.2,2.09,2.09,0,0,1-.4-.6c-2.5-1-6.6.2-11.5,3.5h-.2a.6.6,0,0,1-.4.1c-.1,0-.2-.1-.3-.1l-1.6-.6-1.6-.5-.9-.2a1.23,1.23,0,0,1-1.3-.1,1.165,1.165,0,0,1-.3-1.7l3.3-4.6a1,1,0,0,1,.5-.4c.7-.3,1.4-.6,2-.9l-.6-.2a.758.758,0,0,1-.4-.2c0-.1-.1-.1-.1-.2-2.6-.3-6.1,2.2-9.8,6.8l-.1.1c-.1,0-.1.1-.2.1h-.2a.367.367,0,0,1-.3.1h-3.5l-.9.1a1.247,1.247,0,0,1-1.2.3,1.229,1.229,0,0,1-.8-1.6l1.7-5.2a.865.865,0,0,1,.3-.6c.5-.5,1.1-1,1.6-1.5h-.6c-.1,0-.3-.1-.4-.1s-.1-.1-.2-.1c-2.6.5-5.2,4-7.2,9.5v.1l-.1.1a.1.1,0,0,0-.1.1.1.1,0,0,0-.1.1.1.1,0,0,1-.1.1.1.1,0,0,1-.1.1.1.1,0,0,1-.1.1l-1.7.5-1.6.6-.8.3a1.228,1.228,0,0,1-1.1.7,1.324,1.324,0,0,1-1.3-1.3v-5.6a1.267,1.267,0,0,1,.1-.6c.4-.6.7-1.3,1.1-1.9l-.6.2a.6.6,0,0,1-.4.1c-.1,0-.2-.1-.3-.1-2.3,1.3-3.7,5.4-3.9,11.1v.5l-.1.1-.1.1-.1.1-1.4,1-1.4,1-.7.6a.974.974,0,0,1-.8,1,1.23,1.23,0,0,1-1.6-.8l-1.7-5.2a1.95,1.95,0,0,1-.1-.8,19.993,19.993,0,0,1,.5-2.6l-.1.1a1.154,1.154,0,0,1-.5.7,1.282,1.282,0,0,1-1.2.1c-1.7,2.1-1.8,6.1-.4,11.4.1.1.2.1.3.2a.949.949,0,0,1,.2,1.3l-1.1,1.4-1,1.4-.5.8a1.147,1.147,0,0,1-.5,1.2,1.178,1.178,0,0,1-1.7-.3l-3.3-4.6a1.427,1.427,0,0,1-.2-.6,15.341,15.341,0,0,1-.3-2.1l-.3.5-.3.3c0,.1-.1.1-.2.1-1,2.5.2,6.6,3.5,11.5v.9l-.6,1.6-.5,1.6-.2.9a1.23,1.23,0,0,1-.1,1.3,1.166,1.166,0,0,1-1.7.3l-4.6-3.3a1,1,0,0,1-.4-.5c-.3-.6-.6-1.3-.9-1.9l.2.8a.369.369,0,0,1-.1.3l-.3.3c-.3,2.6,2.2,6.2,6.8,9.8l.1.1.1.1v3.9l.1.9a1.26,1.26,0,0,1,.3,1.3,1.229,1.229,0,0,1-1.6.8l-5.4-1.7c-.2-.1-.5-.2-.6-.4a19.211,19.211,0,0,1-1.4-1.5v.6a1.42,1.42,0,0,1-.2.6c.5,2.6,4,5.2,9.5,7.2h.1a.349.349,0,0,1,.2.1.1.1,0,0,1,.1.1.1.1,0,0,1,.1.1v.1l.5,1.7.6,1.6.3.8a1.231,1.231,0,0,1,.7,1.1,1.324,1.324,0,0,1-1.3,1.3h-5.6a.663.663,0,0,1-.6-.1c-.6-.4-1.3-.7-1.9-1.1l.2.5a.6.6,0,0,1,.1.4c0,.1-.1.2-.1.3,1.3,2.3,5.4,3.7,11.2,4h.3c.1,0,.1.1.2.1l.1.1.1.1h.1v.1l1,1.4,1,1.4.6.7a.974.974,0,0,1,1,.8,1.23,1.23,0,0,1-.8,1.6l-5.2,1.7a2.2,2.2,0,0,1-.8.1,14.355,14.355,0,0,1-2.2-.4l.3.4c0,.1.1.2.1.3a.367.367,0,0,1,.1.3c2,1.7,6.2,1.8,11.9.2h.5c.1,0,.1.1.2.1h.3l1.4,1.1,1.4,1,.8.5a1.216,1.216,0,0,1,1.2.5,1.179,1.179,0,0,1-.3,1.7l-4.4,3.2a1.5,1.5,0,0,1-.7.3c-.8.1-1.5.2-2.2.3l.4.3h.1a2.117,2.117,0,0,1,.4.6c2.4,1,6.5-.2,11.4-3.5h.9l1.7.5,1.6.5.8.3a1.23,1.23,0,0,1,1.3.1,1.166,1.166,0,0,1,.3,1.7l-3.3,4.6a.993.993,0,0,1-.5.4c-.6.3-1.3.6-1.9.9l.6-.1a.757.757,0,0,1,.4.2c0,.1.1.1.1.2,2.6.3,6.1-2.2,9.8-6.8v-.1l.1-.1.1-.1h4l.9-.1a1.533,1.533,0,0,1,.9-.38A1.061,1.061,0,0,1-367.7-233.2Zm13.8,7.7.4,1.2.3-.1h.1c1.8-1.5,3.1-4.4,3.6-8.6l-.2-.7C-350.4-229.7-351.8-226.8-353.9-225.5Zm-38.3-1.6,4.3-.5a5.64,5.64,0,0,1,1.2-.4l-.5-.2-1.3-.5A22.983,22.983,0,0,1-392.2-227.1Zm18.4-.3h2.2l.7.1,1.1-3.4h-2.9Zm-24.8-1.2.4.2c2.3.5,5.4-.2,9-2l.4-.6a14.563,14.563,0,0,1-6.6,1.9,6.97,6.97,0,0,1-2.5-.5Zm52.1-4.5-1.1.7a21.492,21.492,0,0,1-.9,4l2.1-3.8a5.694,5.694,0,0,0,.4-1.2Zm1.9,3.4c-.1.3-.3.7-.4,1.1a6.7,6.7,0,0,0,1.7-2Zm-14.6-3-1.1.3v3.5l.5-.1,1.7-.5.6-.2v-3.6Zm-27.8,2.5.5.2,1.4.6.7.2,2.1-2.9-1.7-.5-1-.4Zm-14-1.2-1.2-.9h-1.2A5.009,5.009,0,0,0-401-231.4Zm60.3-1.7.2.3c0,.1.1.1.1.2l.4.5.3-.3c1.2-1.9,1.5-5.2.9-9.2l-.4-.6C-338.6-238.2-339.1-235-340.7-233.1Zm-7.4-5.3-.9.6,1,3.4.5-.3,1.4-1,.5-.4-1.1-3.4Zm-56.5,2.8,4.2.9c.4,0,.9-.1,1.2-.1l-.4-.3-1-.9A19.373,19.373,0,0,1-404.6-235.6Zm5.8-1.3.5.3,1.3,1,.5.4,2.9-2.1-1.5-1-.9-.7Zm-11.4-2.1.2.3c2,1.2,5.2,1.5,9.3.8l.6-.4a17.105,17.105,0,0,1-3.1.3,9.526,9.526,0,0,1-6-1.7Zm74.1-3.8-.9,1.1a20.31,20.31,0,0,1,.4,4.1l.9-4.3a5.7,5.7,0,0,1-.1-1.3Zm2.8,2.7v1.2a6.307,6.307,0,0,0,.9-2.4Zm-78.4-2.2-.9-1.3c-.3-.1-.7-.3-1.1-.4A6.7,6.7,0,0,0-411.7-242.3Zm72.4-5-.7.9,2.1,2.9.3-.5,1-1.3.4-.6-2.1-2.9Zm8.7,2.7.4.3.1.1.5.4.2-.3c.5-2.3-.2-5.4-2-9.3l-.6-.4C-330.2-250-329.7-246.9-330.6-244.6Zm-77.2-2.4.2.4,1,1.4.4.5,3.4-1.1-1.1-1.4-.6-.9Zm-2.4,1.6a6.423,6.423,0,0,0,1.3.4l-.3-.5-.7-1.1a21.486,21.486,0,0,1-4-.9Zm-7.8-7.1.1.3v.1c1.5,1.8,4.4,3.1,8.7,3.6l.7-.2c-4.1-.7-7-2.1-8.3-4.2Zm88.8-2.6-.5,1.2c.6,1.3,1.2,2.6,1.7,3.8l-.5-4.3c-.2-.4-.3-.8-.5-1.2Zm3.5,1.7c.1.4.1.7.2,1.1l.4.1a6.177,6.177,0,0,0,.1-3.3Zm-7.9-4.9-.4,1,2.8,2,.2-.5.6-1.4.2-.7-2.9-2.1Zm-85,2.2-.4-1.5a5.011,5.011,0,0,1-.8-.7h-.1A9.789,9.789,0,0,0-418.6-256.1Zm5.3-2.7.5,1.6.2.6h3.6l-.6-1.7-.3-1h-3.5Zm-2.7.3a10.7,10.7,0,0,0,1.1.7l-.2-.5-.3-1.3a35.942,35.942,0,0,1-3.5-2.1Zm91.4.1,1.2.4.1-.3v-.2c-.2-2.3-1.9-5.1-4.8-8l-.7-.2C-325.9-263.7-324.5-260.9-324.6-258.4Zm-96.8-8.9c.9,2.2,3.3,4.3,7,6.1h.8c-3.7-1.9-6-4.2-6.6-6.6h-1.2Zm94.8-1.7-.1,1.3a23.852,23.852,0,0,1,2.7,3.1l-1.8-4c-.2-.3-.5-.6-.8-1Zm3.9.5a9.018,9.018,0,0,0,.6,1h.4a9.044,9.044,0,0,0-.9-3.2Zm-9-2v1l3.3,1.1v-3l-3.4-1.1Zm-83.2-1.9v2.5l3.4,1.1-.1-2v-1l-3.3-1.1Zm-5.8,1.8.1-2.2a8.855,8.855,0,0,0-.6-1h-.4A6.2,6.2,0,0,0-420.7-270.6Zm3.1-2.1a7.013,7.013,0,0,0,.8,1v-.6l.1-1.3c-1-1.1-1.9-2.1-2.6-2.9Zm94.5-.8v-.1h1.2v-.4c-.9-2.1-3.3-4.3-7-6.1h-.7C-326-278.2-323.7-275.9-323.1-273.5Zm-96.9-9.2c.2,2.3,1.9,5,4.8,7.9l.7.2c-2.9-3-4.3-5.8-4.2-8.3l-1.2-.4Zm91.8-.3.3,1.3a36.255,36.255,0,0,1,3.5,2.1l-2.9-3.2a10.452,10.452,0,0,0-1.1-.7Zm-84.1-2.6-.5,1.6-.2.7,2.8,2,.5-1.7.4-1-2.8-2.1Zm78.6,2.6.3,1h3.5l-.1-.5-.5-1.6-.2-.6h-3.6Zm9.4-.8.8.8.4-.1a7.36,7.36,0,0,0-1.9-2.7Zm-90.4-3.2c.2.5.3.9.5,1.3l.2-.5.4-1.2a38.965,38.965,0,0,1-1.6-3.8Zm-3.6,1.2.7-2.1c-.1-.4-.1-.7-.2-1.1l-.4-.1A7.368,7.368,0,0,0-418.3-285.8Zm4.4-11.4c-.5,2.3.2,5.4,2,9.1l.6.4c-1.8-3.8-2.3-6.9-1.4-9.2l-1-.7Zm79.2,4.6c4.1.7,7,2.1,8.3,4.2l1.2-.4-.2-.4c-1.5-1.8-4.4-3.1-8.6-3.6Zm-71.1-4.7-1,1.3-.4.6,2.1,2.9,1-1.5,1-1.3-2-2.8Zm65.4,1.8,1.1,1.4.6.9,3.3-1.1-.2-.3-1-1.4-.4-.6Zm6.3-.3.7,1.1a21.422,21.422,0,0,1,4,.9l-3.7-2.1a6.476,6.476,0,0,0-1.3-.4Zm-69.4-13.3-1,.9a14.7,14.7,0,0,0-.4,8,.308.308,0,0,1,.2.1.828.828,0,0,1,.3,1.1l1.3,1.8c-1.1-4.9-.8-8.6.9-10.7l-.6-.8-.4-.6Zm72.1,10.9.2.3c.5.2,1,.4,1.6.6a7.554,7.554,0,0,0-2.5-1.9Zm-74.7-8-1.4,6.8a5.292,5.292,0,0,1,.1,1.3l.3-.4,1.1-1.4c.1,0,.1-.1.2-.1a20.459,20.459,0,0,1-.1-6.5C-406-306.4-406-306.3-406.1-306.2ZM-411-300l1-1.2a4.778,4.778,0,0,0,0-1.2A6.454,6.454,0,0,0-411-300Zm77-1.6.4-.3h.1l.5-.4-.3-.3c-2-1.2-5.2-1.5-9.3-.9l-.6.4a21.823,21.823,0,0,1,3.145-.245A9.273,9.273,0,0,1-334-301.6Zm-61.8-5-1.4,1-.5.3,1.1,3.4,1.4-1.1.9-.6-1.1-3.3Zm46.1,2.6,1.5,1,.9.7,2.8-2.1-.4-.3-1.3-1-.6-.4Zm5.6-2.4.4.3,1,.8a19.316,19.316,0,0,1,4-.4l-4.2-.9A4.266,4.266,0,0,0-344.1-306.4ZM-390.2-317c-1.8,1.6-3.1,4.5-3.6,8.6l.2.7c.7-4.1,2.1-7,4.2-8.3l-.4-1.2Zm-6.7,7.9a3.014,3.014,0,0,0-.3,1.2l.5-.3,1.1-.7a21.573,21.573,0,0,1,.9-4Zm13.4-3.2-1.6.5-.6.2v3.6l1.7-.6,1-.3v-3.5Zm22.4,3.1,1.7.5,1,.4,2.1-2.8-.5-.2-1.5-.5-.7-.2Zm19.2-.1.3.2a9.164,9.164,0,0,0,1.7.1,7.747,7.747,0,0,0-3-1.1Zm-58.3-.9,1-.7.3-.2c.2-.5.4-1,.6-1.6A7.566,7.566,0,0,0-400.2-310.2Zm45.8-.7-.4.6c3.8-1.8,6.9-2.3,9.2-1.4l.3-.4a.1.1,0,0,0,.1-.1l.4-.5-.3-.2a7.32,7.32,0,0,0-1.555-.157A19.465,19.465,0,0,0-354.4-310.9Zm-19.1.3h2.9l1.1-3.3h-2.9Zm18.1-3.1c-.4.2-.8.3-1.2.5l.5.2,1.3.4a22.94,22.94,0,0,1,3.7-1.6Zm-25.7.3v.7c2-3.6,4.2-5.9,6.6-6.5v-1.2h-.5C-377.2-319.5-379.3-317.1-381.1-313.4Zm13.6-.8-.2.7c3-2.9,5.8-4.3,8.3-4.2l.4-1.2-.4-.1Q-363-318.7-367.5-314.2Zm-16.3-.8a10.4,10.4,0,0,0-.7,1.1l.5-.2,1.3-.3a35.857,35.857,0,0,1,2.1-3.5Zm14.3-1.6a7.692,7.692,0,0,0-1.1.8h.6l1.4.1a23.911,23.911,0,0,1,3.1-2.7Zm13-.7,2.1.7c.4-.1.7-.1,1.1-.2l.1-.4a6.261,6.261,0,0,0-1.785-.24A8.539,8.539,0,0,0-356.5-317.3Zm-30.4-.1,2.1-.6.8-.8-.1-.4A10.344,10.344,0,0,0-386.9-317.4Zm15.2-2.4h.3l1.9.1c.3-.2.7-.4,1-.6v-.4A9,9,0,0,0-371.7-319.8Zm-35.4,49.2a35.507,35.507,0,0,1,35.5-35.5,35.638,35.638,0,0,1,35.5,35.5,35.508,35.508,0,0,1-35.5,35.5A35.508,35.508,0,0,1-407.1-270.6Zm6.6.4a28.89,28.89,0,0,0,23.8,27.9l.5.1h.2a5.029,5.029,0,0,0,1.2.2h.2c.5,0,1,.1,1.5.1.7,0,1.3-.5,1.1-1a1.388,1.388,0,0,0-.7-1.2,4.308,4.308,0,0,0-.5-.1h-.7a1.706,1.706,0,0,0-.7-.1l-.4-.1h-.1c-.4-.1-.8-.1-1.2-.2h-.1A26.6,26.6,0,0,1-398-270.1a26.13,26.13,0,0,1,17.5-25.2c.1-.1.1-.1.2-.1l.6-.2c.1-.1.1-.1.2-.1s.3-.1.4-.1h.2l.6-.2h.1c.1,0,.3-.1.4-.1h.2l.4-.1a2.351,2.351,0,0,1,.8-.2h.1l.4-.1h.2c.3,0,.5-.1.7-.1h.1l.4-.1c.5,0,1-.1,1.5-.1a1.24,1.24,0,0,0,1.2-1.3,1.241,1.241,0,0,0-1.3-1.2c-.5,0-.9.1-1.4.1h-.3c-.4.1-.8.1-1.2.2h-.3a5.015,5.015,0,0,0-1.2.2h-.2A28.636,28.636,0,0,0-400.5-270.2Zm29,27a1.188,1.188,0,0,0,1,1.2h.6c.3,0,.7-.1,1-.1h.4a4.108,4.108,0,0,0,1.1-.1h.3A28.633,28.633,0,0,0-342.9-271v-.1A29.11,29.11,0,0,0-362-297.9h-.1l-.6-.2h-.1c-.4-.1-.7-.2-1-.3l-.4-.1h-.1l-1.2-.3h-.3c-.3-.1-.7-.1-1-.2l-.3-.1h-.2c-.3,0-.7-.1-1.1-.1h-.3c-.4,0-.8-.1-1.2-.1h-.3a1.294,1.294,0,0,0-1.2.9.37.37,0,0,0-.1.3,1.24,1.24,0,0,0,1.2,1.3h.7c.3,0,.5.1.8.1h.5a3.4,3.4,0,0,1,1,.1l.3.1h.1c.3.1.5.1.8.2l.5.1h.1a2.923,2.923,0,0,1,.9.2l.4.3c.4.1.8.3,1.2.4a26.264,26.264,0,0,1,17.7,24.5v.1a26.1,26.1,0,0,1-17.5,25h-.2l-.6.2c-.1.1-.1.1-.2.1-.2,0-.3.1-.4.1h-.2l-.6.2h-.1c-.1,0-.3.1-.4.1h-.2l-.6.1a4.308,4.308,0,0,1-.5.1h-.2l-.5.1h-.1c-.2,0-.5.1-.7.1h-.4a2.768,2.768,0,0,1-.9.1h-.7A1.241,1.241,0,0,0-371.5-243.2Zm-.4-6a1.215,1.215,0,0,0,1.2,1.2h.5a1.441,1.441,0,0,0,1.1-.9,1.37,1.37,0,0,0,1.3.6l.3-.1c.1-.1.3-.1.4-.2h.5l.4-.1c.2-.1.3-.1.4-.2.1.1.3,0,.4,0l.4-.1a2.173,2.173,0,0,0,.5-.3.905.905,0,0,0,.5-.1l.2-.1a.994.994,0,0,0,.5-.4,1.269,1.269,0,0,0,.6-.1l.3-.1a.519.519,0,0,0,.4-.2c.2,0,.3,0,.4-.1a.1.1,0,0,1,.1-.1l.2-.1.1-.1.3-.3a.6.6,0,0,0,.4-.1l.3-.2a1.364,1.364,0,0,0,.4-.3c.1-.1.3-.1.4-.2l.2-.1a1.753,1.753,0,0,0,.4-.5,1.421,1.421,0,0,0,.6-.2l.3-.2.3-.3a.757.757,0,0,0,.4-.2l.2-.2h.1l.3-.3c.1,0,.2-.1.3-.2l.3-.6a1.212,1.212,0,0,0,.2-1.5,1.118,1.118,0,0,0,1.5-.3l.1-.1a.517.517,0,0,0,.2-.4c.1,0,.2-.1.3-.2l.1-.1.1-.1.1-.1c.1-.2.2-.3.2-.4l.3-.3.1-.1.1-.1c0-.1.1-.1.1-.2s.1-.3.1-.4c.1,0,.2-.2.3-.3l.1-.2a1.423,1.423,0,0,0,.2-.6l.1-.1a1.379,1.379,0,0,0,.3-.4l.1-.2c.1-.1.1-.1.1-.2a.367.367,0,0,0,.1-.3l.1-.1c.2-.1.2-.3.3-.4l.1-.3c.1-.1.1-.1.1-.2v-.2c.1-.1.1-.3.2-.4v-.1l.1-.2v-.1a.37.37,0,0,0,.1-.3v-.1a.519.519,0,0,0,.2-.4v-.8c.1-.2.3-.4.3-.6v-.7a.759.759,0,0,0,.2-.5l.1-.4v-.4c0-.1.1-.2.1-.3v-.9a.6.6,0,0,0,.1-.4v-.5a1.23,1.23,0,0,0-.7-1.1,1.385,1.385,0,0,0,.4-.3,1.285,1.285,0,0,0,.4-1v-.4a.6.6,0,0,0-.1-.4v-.7a.6.6,0,0,0-.1-.4v-.4l-.1-.4a.766.766,0,0,0-.2-.5v-.7l-.3-.6v-.3c0-.2-.1-.3-.1-.4l-.1-.3c-.1-.1-.1-.2-.2-.3a.6.6,0,0,0-.1-.4l-.1-.2-.1-.2a.52.52,0,0,0-.2-.4.6.6,0,0,0-.1-.4v-.1l-.1-.3c-.1-.1-.2-.3-.3-.4a.9.9,0,0,0-.1-.5l-.1-.2a1,1,0,0,0-.4-.5,1.267,1.267,0,0,0-.1-.6v-.6l-.3-.3c0-.2,0-.3-.1-.4v-.1l-.2-.3-.3-.3c-.1-.2-.1-.3-.2-.4l-.1-.1-.1-.1-.1-.2c-.1-.1-.3-.2-.4-.3a.757.757,0,0,0-.2-.4l-.2-.2a.994.994,0,0,0-.5-.4.863.863,0,0,0-.3-.6l-.2-.2a1.378,1.378,0,0,0-.4-.3c-.1-.1-.2-.3-.3-.4l-.1-.1c-.1-.2-.2-.2-.4-.3,0-.1-.1-.2-.2-.3l-.1-.1-.1-.1a1.37,1.37,0,0,0-1.5-.1,1.149,1.149,0,0,0-.5-1.4l-.2-.1a.519.519,0,0,0-.4-.2l-.3-.3h-.1l-.3-.2c-.1,0-.3-.1-.4-.1s-.1-.1-.2-.1-.1-.1-.2-.1l-.4-.2c-.1,0-.3-.1-.4-.1-.1-.1-.3-.1-.4-.2l-.3-.1h-.6a2.193,2.193,0,0,0-.5-.3l-.2-.1a.9.9,0,0,0-.5-.1,1.331,1.331,0,0,0-.5-.3l-.4-.1h-.4a.757.757,0,0,0-.4-.2l-.4-.1h-.5c-.1,0-.3-.1-.4-.1l-.4-.1a1.272,1.272,0,0,0-1.5,1,1.3,1.3,0,0,0,.5,1.3c.2.1.3.2.5.2l.3.1h.4c.1,0,.2.1.3.1l.4.1h.4c.1.1.2.2.3.2l.3.1h.5c.1.1.3.1.4.2l.2.1a.749.749,0,0,0,.5.1l.1.1c.1.1.2.1.3.2l.3.1a.6.6,0,0,0,.4.1c0,.1.1.2.2.4h.1l.3.1c.1,0,.2.1.3.1.1.1.2.1.3.2l.3.2c.1,0,.3.1.4.1,0,.1.2.2.3.3l.2.1h.1a1.277,1.277,0,0,0,1.2,0,1.249,1.249,0,0,0,.4,1.3l.2.2c.1.1.3.1.4.2l.3.3.2.1c.1.2.3.2.4.3,0,.1.1.1.1.2.1.1.1.2.2.3l.2.2a.1.1,0,0,0,.1.1c.1.1.3.1.4.2a.763.763,0,0,0,.2.5l.2.2.3.3c.1.2.1.3.2.4l.2.3c0,.065.043.088.1.124v.076l.2.3.3.3c.1.2.1.3.2.4l.2.3c.1.2.3.3.4.4a.9.9,0,0,0,.1.5l.1.2a1.4,1.4,0,0,0,.3.4.6.6,0,0,0,.1.4l.1.3a.369.369,0,0,0,.1.3.1.1,0,0,1,.1.1c0,.1.1.2.1.3l.1.4c.1.1.1.2.2.3,0,.2.1.3.1.4l.1.3a2.215,2.215,0,0,0,.3.5v.7a.767.767,0,0,0,.2.5v.4l.1.4c0,.2,0,.3.1.4v.8c0,.2.1.3.1.4v.8a1.23,1.23,0,0,0,.7,1.1,1.232,1.232,0,0,0-.7,1.1v.8a.37.37,0,0,0-.1.3v.9c0,.2-.1.3-.1.4l-.1.4v.4a.519.519,0,0,0-.2.4v.7a1.356,1.356,0,0,0-.3.5l-.1.3v.4a.757.757,0,0,0-.2.4l-.1.4a.367.367,0,0,0-.1.3c-.1.1-.2.2-.2.3l-.2.4a.6.6,0,0,0-.1.4c-.1.1-.2.3-.3.4l-.1.2a.9.9,0,0,0-.1.5.784.784,0,0,0-.4.4l-.1.2a.757.757,0,0,0-.2.4l-.3.3-.2.3c-.1.1-.2.2-.2.3l-.3.3-.2.3a.759.759,0,0,0-.2.4l-.3.3-.1.1a1.412,1.412,0,0,0-.1,1.4,1.209,1.209,0,0,0-1.4.2l-.3.3c-.1.1-.1.2-.2.3s-.2.1-.3.2l-.3.2c-.1.1-.1.2-.2.3a.522.522,0,0,0-.4.2h-.1l-.1.1-.2.2c0,.1-.1.1-.1.2-.2,0-.3.1-.5.2l-.2.1-.3.3a.6.6,0,0,0-.4.1l-.3.2c-.1,0-.2.1-.3.2a.369.369,0,0,0-.3.1l-.4.2c-.1,0-.2.1-.3.2-.2,0-.3,0-.4.1l-.3.1c-.1.1-.3.2-.4.3a1.086,1.086,0,0,0-.5.1l-.2.1a.757.757,0,0,0-.4.2c-.1-.1-.3,0-.4,0l-.4.1c-.1.1-.2.1-.3.2h-.4l-.4.1a.367.367,0,0,0-.3.1h-.4l-.3.1a1.077,1.077,0,0,0-1,.8,1.149,1.149,0,0,0-1.1-.6h-.4A1.239,1.239,0,0,0-371.9-249.2Zm-2.4,1.2h.1a1.279,1.279,0,0,0,1.2-1.1,1.244,1.244,0,0,0-1.1-1.4h-.3c-.1,0-.2.1-.3.1-.2-.1-.3-.2-.5-.2l-.4-.1h-.4c-.1,0-.2-.1-.3-.1l-.4-.1h-.4c-.1-.1-.2-.2-.3-.2l-.4-.1h-.4c-.1-.1-.2-.1-.4-.2l-.2-.1a.894.894,0,0,0-.5-.1,1.4,1.4,0,0,0-.4-.3l-.3-.1a.6.6,0,0,0-.4-.1c-.1-.1-.2-.1-.3-.2h-.1l-.3-.1c-.1,0-.2-.1-.3-.1-.1-.1-.2-.1-.3-.2l-.3-.2c-.1,0-.3-.1-.4-.1l-.3-.3-.2-.1a1.222,1.222,0,0,0-1.3,0,1.249,1.249,0,0,0-.4-1.3l-.2-.2a.757.757,0,0,0-.4-.2c0-.1-.1-.2-.2-.3l-.2-.2c-.1-.2-.3-.2-.4-.3s-.2-.3-.3-.4l-.2-.2a1.4,1.4,0,0,0-.4-.3.764.764,0,0,0-.2-.5l-.2-.2-.3-.3c-.1-.2-.1-.3-.2-.4l-.2-.3-.2-.2a.368.368,0,0,0-.1-.3.1.1,0,0,1-.1-.1l-.2-.2c0-.1-.1-.2-.2-.3-.1-.2-.1-.3-.2-.4l-.2-.3c-.1-.2-.3-.3-.4-.4a.9.9,0,0,0-.1-.5l-.1-.2a1.373,1.373,0,0,0-.3-.4.6.6,0,0,0-.1-.4l-.1-.4c-.1-.1-.1-.2-.2-.3,0-.1-.1-.2-.1-.3l-.1-.4c-.1-.1-.1-.2-.2-.3v-.4l-.1-.3a2.245,2.245,0,0,0-.3-.5v-.7a.76.76,0,0,0-.2-.4v-.4l-.1-.4c0-.2,0-.3-.1-.4v-.8c0-.2-.1-.3-.1-.4v-.7a1.23,1.23,0,0,0-.7-1.1,1.232,1.232,0,0,0,.7-1.1v-.8a.755.755,0,0,0,.1-.4v-.8c0-.2.1-.3.1-.4l.1-.4v-.4c.1-.1.2-.2.2-.3v-.8a1.356,1.356,0,0,0,.3-.5l-.2-.4a.6.6,0,0,0,.1-.4c.1-.1.2-.2.2-.3l.1-.1.1-.2c.1,0,.1-.1.1-.2v-.1c.1-.1.2-.2.2-.3v-.1l.1-.3a.6.6,0,0,0,.1-.4c.1-.1.1-.2.2-.3a.1.1,0,0,0,.1-.1l.1-.2a.9.9,0,0,0,.1-.5.782.782,0,0,0,.4-.4l.1-.2a.757.757,0,0,0,.2-.4l.3-.3.2-.3c.1-.2.2-.3.2-.4l.3-.3.3-.3v-.1c.1-.1.2-.2.2-.3l.3-.3.1-.1a1.412,1.412,0,0,0,.1-1.4,1.438,1.438,0,0,0,1.4-.2l.3-.3c.1-.1.1-.2.2-.3s.2-.1.3-.2l.4-.3c.1-.1.1-.2.2-.3.2-.1.3-.1.4-.2l.3-.2a1.379,1.379,0,0,0,.3-.4c.2,0,.3-.1.5-.2l.2-.1.3-.3a.6.6,0,0,0,.4-.1l.3-.2c.1,0,.2-.1.3-.2a.368.368,0,0,0,.3-.1l.4-.2c.1,0,.2-.1.3-.2.1,0,.2,0,.5-.2l.3-.1c.1-.1.3-.2.4-.3a.9.9,0,0,0,.5-.1l.2-.1a.757.757,0,0,0,.4-.2c.1.1.3,0,.4,0h.1l.1.3c.1-.1.2-.1.3-.2h.3l.3-.1a.367.367,0,0,0,.3-.1h.4l.3-.1a.764.764,0,0,0,.5-.2.753.753,0,0,0,.5.1h.2a1.243,1.243,0,0,0,1.1-1.4,1.244,1.244,0,0,0-1.4-1.1h-.1a1.424,1.424,0,0,0-.6.2h-.6l-.3.1c-.2,0-.3,0-.4.1h-.5l-.4.1c-.2.1-.3.1-.4.2-.1-.1-.3,0-.4,0l-.4.1a2.184,2.184,0,0,0-.5.3.9.9,0,0,0-.5.1l-.2.1a1,1,0,0,0-.5.4,1.267,1.267,0,0,0-.6.1l-.3.1a.519.519,0,0,0-.4.2.6.6,0,0,0-.4.1l-.4.2-.3.3a.6.6,0,0,0-.4.1l-.3.2a1.379,1.379,0,0,0-.4.3c-.1.1-.3.1-.4.2l-.2.1a1,1,0,0,0-.4.5.6.6,0,0,0-.4.1c-.1,0-.1.1-.2.1l-.2.2-.3.3a.367.367,0,0,0-.3.1l-.1.1-.2.1-.1.1-.3.3c-.1,0-.2.1-.3.2l-.2.2a1.212,1.212,0,0,0-.2,1.5,1.09,1.09,0,0,0-1.4.2l-.1.1-.1.1a.519.519,0,0,0-.2.4c-.2,0-.3.2-.4.3l-.1.2-.1.1a.765.765,0,0,0-.2.4l-.3.3-.2.3c-.1.2-.2.3-.2.5-.1,0-.2.2-.3.3l-.1.2a1.42,1.42,0,0,0-.2.6,1,1,0,0,0-.4.5l-.1.2c-.1.1-.1.2-.1.4a1.38,1.38,0,0,0-.3.4l-.2.4a.6.6,0,0,0-.1.4c-.1.1-.1.3-.2.4l-.1.4a.6.6,0,0,0-.1.4.76.76,0,0,0-.2.4l-.1.3v.6c-.1.2-.3.4-.3.6v.7c-.1.2-.2.3-.2.5l-.1.4v.4c0,.1-.1.2-.1.3v1a.6.6,0,0,0-.1.4v.4a1.086,1.086,0,0,0,.7,1.2,1.229,1.229,0,0,0-.7,1.1v.5a.6.6,0,0,0,.1.4v.9a.6.6,0,0,0,.1.4v.4l.1.3a.759.759,0,0,0,.2.5v.7l.3.6a.637.637,0,0,0,0,.6v.1l.1.3a.519.519,0,0,0,.2.4c0,.1.1.3.1.4v.1l.2.1v.1a.519.519,0,0,0,.2.4.6.6,0,0,0,.1.4l.1.4c.1.1.2.3.3.4a.9.9,0,0,0,.1.5v.3a1,1,0,0,0,.4.5,1.424,1.424,0,0,0,.2.6l.2.3.3.3c.1.1.1.3.2.4l.2.3.3.3c.1.2.1.3.2.4l.3.1c.1.1.3.2.4.3a.759.759,0,0,0,.2.4l.2.2a1,1,0,0,0,.5.4.865.865,0,0,0,.3.6l.2.2a1.379,1.379,0,0,0,.4.3,2.215,2.215,0,0,0,.3.5l.1.1.1.1c.1.2.2.2.4.3a1.4,1.4,0,0,0,.3.4l.2.2a2.156,2.156,0,0,0,1.6.4,1.151,1.151,0,0,0,.5,1.4l.2.1c.2.1.3.2.5.2a1.373,1.373,0,0,0,.4.3l.3.2c.1,0,.3.1.4.1l.3.3a.1.1,0,0,0,.1.1l.2.1c.1,0,.3.1.4.1.1.1.3.1.4.2l.3.1a1.271,1.271,0,0,0,.6.1,1,1,0,0,0,.5.4h.1a.9.9,0,0,0,.5.1,1.318,1.318,0,0,0,.5.3l.4.1h.4a.757.757,0,0,0,.4.2h.8c.1,0,.3.1.4.1l.4.1a.637.637,0,0,0,.6,0A1.077,1.077,0,0,0-374.3-248Zm-6.7-21.1a9.341,9.341,0,0,0,5.1,7,2.58,2.58,0,0,0-1.9,2.5,2.564,2.564,0,0,0,.8,1.9.974.974,0,0,0,.8,1,.6.6,0,0,0,.4.1,1.264,1.264,0,0,0,.9-.4,2.5,2.5,0,0,0,2.2-2.5v-.1a3.376,3.376,0,0,0-.6-1.5,8.092,8.092,0,0,0,1.6.1,9.525,9.525,0,0,0,6.8-2.8v.1a2.628,2.628,0,0,0,2.6,2.5,2.657,2.657,0,0,0,1.2-.3,1.216,1.216,0,0,0,1.2-.5,1.232,1.232,0,0,0,.1-1.3v-.6a2.628,2.628,0,0,0-2.6-2.5,2.928,2.928,0,0,0-.9.2,9.741,9.741,0,0,0,0-8.8,2.9,2.9,0,0,0,.9.2,2.582,2.582,0,0,0,2.6-2.6v-.5a1.23,1.23,0,0,0-.1-1.3,1.146,1.146,0,0,0-1.2-.5,2.667,2.667,0,0,0-1.2-.3,2.647,2.647,0,0,0-2.6,2.6v.1a9.019,9.019,0,0,0-8.2-2.6,2.268,2.268,0,0,0,.6-1.6,2.577,2.577,0,0,0-2.2-2.5,1.261,1.261,0,0,0-1.3-.3,1.59,1.59,0,0,0-.8,1,2.736,2.736,0,0,0-.8,1.9,2.579,2.579,0,0,0,1.9,2.5l-.6.3h-.1c-.6.4-1.1.8-1.6,1.2l-.1.1a9,9,0,0,0-2.9,5.5,2.438,2.438,0,0,0-2.1-1.2,2.413,2.413,0,0,0-1.8.7,1.8,1.8,0,0,0-.5.7,1.229,1.229,0,0,0-.7,1.1,1.23,1.23,0,0,0,.7,1.1,2.611,2.611,0,0,0,2.3,1.4,2.718,2.718,0,0,0,2.1-1.2Zm2.6-.1-.1-.3v-.1l-.1-1v-.6a6.668,6.668,0,0,1,2-4.4l.1-.1.1-.1a4.421,4.421,0,0,1,1.1-.8,7.163,7.163,0,0,1,9.7,2.3,7.307,7.307,0,0,1-.5,7.9l-.1.1a6.725,6.725,0,0,1-5.4,2.6A6.956,6.956,0,0,1-378.4-269.2Zm59.1-3.156v0Zm-55.994-4.25-.006.006Zm0,0,0,0Zm.006-.006-.006.006Zm0,0h0Zm.006-.006-.006.006Zm.008-.008-.008.008Zm0,0,0,0Zm0,0,0,0Zm0,0,0,0Zm0,0,0,0Zm0,0h0Zm0,0Zm20.085-5.616a.467.467,0,0,1,.071.058c.05.05.076.1.063.1S-355.09-282.141-355.172-282.258Zm-.028-.018v-.024l.028.042Z" transform="translate(424 323)" fill="#83b860"/>
  </g>
</svg>
